HIERARCHY
ROOT Hips
{
  OFFSET 3.13124 94.3669 -3.18751
  CHANNELS  6 Xposition Yposition Zposition Zrotation Xrotation Yrotation
  JOINT LeftUpLeg
  {
    OFFSET 8.64259 1.95398 -2.38835
    CHANNELS 3 Zrotation Xrotation Yrotation
    JOINT LeftLeg
    {
      OFFSET 43.7702 0 0
      CHANNELS 3 Zrotation Xrotation Yrotation
      JOINT LeftFoot
      {
        OFFSET 40.6238 0 0
        CHANNELS 3 Zrotation Xrotation Yrotation
        JOINT LeftToeBase
        {
          OFFSET 12.7242 0 0
          CHANNELS 3 Zrotation Xrotation Yrotation
          End Site
          {
            OFFSET 0 0 0
          }
        }
      }
    }
  }
  JOINT RightUpLeg
  {
    OFFSET -8.2249 1.95398 -2.59336
    CHANNELS 3 Zrotation Xrotation Yrotation
    JOINT RightLeg
    {
      OFFSET 43.5653 0 0
      CHANNELS 3 Zrotation Xrotation Yrotation
      JOINT RightFoot
      {
        OFFSET 40.6238 0 0
        CHANNELS 3 Zrotation Xrotation Yrotation
        JOINT RightToeBase
        {
          OFFSET 12.7242 0 0
          CHANNELS 3 Zrotation Xrotation Yrotation
          End Site
          {
            OFFSET 0 0 0
          }
        }
      }
    }
  }
  JOINT Spine
  {
    OFFSET 0.165834 0.87714 6.61349
    CHANNELS 3 Zrotation Xrotation Yrotation
    JOINT Spine1
    {
      OFFSET 7.38962 1.71661e-005 0
      CHANNELS 3 Zrotation Xrotation Yrotation
      JOINT Spine2
      {
        OFFSET 11.9445 1.14441e-005 0
        CHANNELS 3 Zrotation Xrotation Yrotation
        JOINT Spine3
        {
          OFFSET 14.7254 4.19617e-005 0
          CHANNELS 3 Zrotation Xrotation Yrotation
          JOINT Spine4
          {
            OFFSET 10.9679 0 0
            CHANNELS 3 Zrotation Xrotation Yrotation
            JOINT RightShoulder
            {
              OFFSET 2.46616 -1.6653 3.69651
              CHANNELS 3 Zrotation Xrotation Yrotation
              JOINT RightArm
              {
                OFFSET 13.0012 0 0
                CHANNELS 3 Zrotation Xrotation Yrotation
                JOINT RightForeArm
                {
                  OFFSET 28.7848 1.52588e-005 0
                  CHANNELS 3 Zrotation Xrotation Yrotation
                  JOINT RightHand
                  {
                    OFFSET 26.5688 1.52588e-005 0
                    CHANNELS 3 Zrotation Xrotation Yrotation
                    End Site
                    {
                      OFFSET 0 0 0
                    }
                  }
                }
              }
            }
            JOINT LeftShoulder
            {
              OFFSET 2.38034 -1.29275 -3.75231
              CHANNELS 3 Zrotation Xrotation Yrotation
              JOINT LeftArm
              {
                OFFSET 16.3182 6.10352e-005 0
                CHANNELS 3 Zrotation Xrotation Yrotation
                JOINT LeftForeArm
                {
                  OFFSET 27.0901 0 0
                  CHANNELS 3 Zrotation Xrotation Yrotation
                  JOINT LeftHand
                  {
                    OFFSET 24.5451 1.52588e-005 0
                    CHANNELS 3 Zrotation Xrotation Yrotation
                    End Site
                    {
                      OFFSET 0 0 0
                    }
                  }
                }
              }
            }
            JOINT Neck
            {
              OFFSET 5.0226 -0.0266342 0
              CHANNELS 3 Zrotation Xrotation Yrotation
              JOINT Head
              {
                OFFSET 6.69363 2.86102e-005 0
                CHANNELS 3 Zrotation Xrotation Yrotation
                End Site
                {
                  OFFSET 0 0 0
                }
              }
            }
          }
        }
      }
    }
  }
}
MOTION
Frames:	18
Frame Time:	0.0333333
-26.588 88.8377 -39.6691 83.0212 -38.071 81.9001 -175.336 27.4091 93.1256 -28.5798 -10.2808 3.86518 58.5117 -6.44675 -4.33465 28.7808 6.83373e-006 -7.31106e-006 177.854 8.49148 81.2461 -32.7187 -6.7664 -0.5462 77.0816 -1.60898 -0.923989 28.7808 1.30174e-005 1.10656e-005 1.84936 8.5226 -90.6749 9.87783 3.50654 -2.09151 -1.79031 3.41095 -2.24396 -24.3597 3.97383 -0.939284 -4.3471 3.97383 -0.939303 93.0637 -46.5779 -96.7228 25.6796 16.067 4.82156 162.855 -3.80724 -78.3661 25.2197 23.3589 78.9433 -108.446 -61.7963 57.1388 -23.009 -10.7531 15.102 -102.596 13.9116 -88.5594 -56.3601 -19.0907 31.9953 -18.4234 -2.55967 28.3109 -38.284 5.56417 -22.7305 
-26.8483 89.6585 -41.04 83.3482 -38.569 82.2314 -174.722 23.4093 94.7708 -29.1188 -11.5593 5.02504 60.2616 -4.99736 -3.24755 28.7808 6.83373e-006 -7.31106e-006 177.432 7.91796 80.6545 -30.0386 -7.79804 -0.572288 74.4668 -0.802285 -0.540391 28.7808 1.30174e-005 1.10656e-005 1.93399 8.44732 -90.6834 10.0242 3.5751 -2.01096 -1.64369 3.4827 -2.16641 -24.2151 4.0146 -0.842345 -4.2025 4.01459 -0.842381 94.7461 -44.526 -94.3556 25 17.7755 5.27163 159.631 -5.25635 -76.602 26.1143 22.946 75.932 -108.004 -61.5854 57.6195 -21.1871 -14.0794 13.9349 -102.081 16.3092 -88.1692 -54.2316 -19.6463 34.6966 -19.5294 -2.36177 27.4608 -38.6597 6.01387 -22.4314 
-27.1419 90.1946 -42.2141 84.0362 -38.6528 83.4567 -173.417 19.8192 97.2883 -30.0756 -9.24023 6.29711 61.0011 -4.28998 -2.75709 28.7808 6.83373e-006 -7.31106e-006 177.147 6.66455 80.9906 -27.1517 -8.07333 -0.555557 72.5944 -0.0289252 -0.147233 28.7808 1.30174e-005 1.10656e-005 1.96124 8.32491 -90.7431 10.2672 3.57888 -2.07102 -1.40069 3.48429 -2.22663 -23.9719 4.03565 -0.901294 -3.95926 4.03562 -0.901318 95.996 -42.2145 -92.6368 23.5639 21.6805 0.863913 157.047 -5.82375 -77.3123 25.9494 22.7571 75.8782 -108.138 -61.1178 57.2519 -17.8412 -21.3411 9.58735 -95.3542 19.4668 -90.1083 -52.6741 -20.621 37.5008 -21.3257 -2.5284 26.2669 -38.8337 5.88325 -21.3242 
-27.2873 90.3351 -43.3908 85.0734 -37.3231 84.7526 -172.202 16.8946 99.5326 -30.9392 -5.60975 7.75911 61.48 -3.26446 -2.10806 28.7808 6.83373e-006 -7.31106e-006 176.912 5.15645 81.2189 -25.0364 -7.03203 -0.479246 72.132 0.348661 0.0434299 28.7808 1.30174e-005 1.10656e-005 1.83555 8.15303 -90.7543 10.6043 3.26816 -2.02985 -1.06434 3.17563 -2.17172 -23.6287 3.72692 -0.952803 -3.61604 3.7269 -0.952841 96.3739 -40.1847 -92.2328 21.3859 28.6535 -8.06422 152.104 -5.37946 -81.4869 26.0183 23.51 77.6035 -117.073 -58.8151 44.9701 -8.60695 -40.3671 -8.54419 -98.9696 0.141597 -90.2167 -67.8662 -39.5903 54.4137 -23.5806 -2.56881 25.0168 -39.7653 6.1174 -20.2881 
-27.2956 90.0962 -44.5821 86.634 -35.5516 86.3309 -170.408 14.3293 102.034 -31.2755 -2.26851 8.67045 62.128 -3.22561 -2.04843 28.7808 6.83373e-006 -7.31106e-006 176.783 3.38825 81.429 -23.8568 -5.228 -0.37053 73.0074 0.58704 0.129048 28.7808 1.30174e-005 1.10656e-005 1.64408 8.00213 -90.6893 10.9039 2.88744 -1.99264 -0.765536 2.79694 -2.11867 -23.3222 3.35281 -1.03267 -3.30956 3.35279 -1.03269 96.1247 -38.0877 -93.0087 19.8059 35.9569 -17.2935 145.918 -4.70963 -85.212 27.8929 24.0744 74.9807 -114.504 -56.3481 47.0065 -4.52207 -41.9476 -34.1724 -115.345 -30.3347 -105.815 -86.845 -56.7136 57.0337 -25.9301 -2.54165 23.5685 -40.4462 6.1258 -18.743 
-27.0007 89.6259 -46.0844 87.7599 -33.4346 87.6711 -168.678 12.4247 104.322 -29.8567 -2.4488 8.66513 62.9529 -2.45576 -1.55162 28.7808 6.83373e-006 -7.31106e-006 176.615 1.96071 81.3378 -23.0234 -3.95256 -0.294418 74.392 1.14337 0.33944 28.7808 1.30174e-005 1.10656e-005 1.47617 7.83168 -90.6651 11.2429 2.51983 -2.04137 -0.427362 2.4276 -2.15113 -22.977 3.01644 -1.18529 -2.96436 3.01641 -1.18532 95.8281 -34.6684 -94.1358 19.2179 39.828 -26.2156 142.333 -2.26817 -89.8115 33.2611 26.0445 69.3603 -111.683 -53.4125 49.2621 -3.9548 -45.2277 -38.1799 -119.726 -30.252 -108.317 -89.5467 -51.1984 49.1021 -28.4789 -2.1519 22.2512 -40.387 6.43851 -17.4042 
-26.5406 89.1228 -47.9647 88.3308 -31.3303 88.7001 -167.169 11.0096 106.126 -27.3914 -3.79877 7.7456 61.6484 -3.23641 -2.10477 28.7808 6.83373e-006 -7.31106e-006 176.39 1.09987 80.9486 -22.4258 -3.29648 -0.254569 75.352 1.84027 0.612967 28.7808 1.30174e-005 1.10656e-005 1.31909 7.64024 -90.5607 11.6234 2.20481 -1.9453 -0.047254 2.11703 -2.04044 -22.5921 2.6874 -1.19318 -2.57947 2.68741 -1.1932 95.1524 -32.0389 -95.9633 18.9628 44.3596 -33.225 136.692 -0.477915 -92.2341 37.6725 25.4893 61.1186 -107.903 -49.1327 52.3677 -4.43272 -50.2054 -37.9218 -100.853 -24.2356 -96.9394 -99.6546 -35.602 26.9971 -30.9227 -2.16166 19.9356 -40.0275 5.80698 -15.5059 
-25.786 88.8676 -50.4283 87.9226 -29.0639 88.5821 -166.949 10.4112 106.262 -25.2441 -9.11768 5.16922 56.657 -6.34143 -4.48419 28.7808 6.83373e-006 -7.31106e-006 175.763 0.707363 79.5006 -20.7655 -2.68788 -0.21215 74.9379 2.91543 1.10789 28.7808 1.30174e-005 1.10656e-005 1.25609 7.44347 -90.4277 12.0187 2.09049 -1.87698 0.347967 2.00583 -1.96735 -22.1957 2.55802 -1.16115 -2.18308 2.55803 -1.16116 95.7258 -26.5521 -96.0251 18.9866 48.8015 -38.1095 130.188 0.422011 -93.2474 40.7139 23.2162 52.1016 -104.671 -44.4743 54.8159 -9.49621 -48.3688 -37.4804 -80.4735 -13.4977 -90.3506 -95.3357 -8.32852 3.57624 -33.2381 -2.56331 18.5982 -38.9877 5.43753 -15.4594 
-24.7251 88.6381 -53.4061 87.756 -26.8251 88.5519 -167.027 8.76005 104.916 -22.0345 -10.0972 3.67029 60.4947 -9.4872 -6.01619 28.7808 6.83373e-006 -7.31106e-006 174.865 0.455778 77.639 -19.7278 -1.78478 -0.15738 73.4041 4.08933 1.73439 28.7808 1.30174e-005 1.10656e-005 1.26865 7.37631 -90.4943 12.1509 2.12136 -1.87439 0.480153 2.03673 -1.96576 -22.064 2.58677 -1.15049 -2.05129 2.58675 -1.15053 97.3012 -18.5234 -94.1775 19.9645 54.4319 -41.6576 120.222 -0.852901 -92.2301 39.94 19.2933 44.3819 -101.445 -39.4727 57.3913 -12.8416 -47.0092 -42.4795 -63.0303 -9.54678 -88.1418 -82.3658 8.44265 -14.4724 -34.4193 -3.18793 17.217 -38.4501 4.71369 -15.5937 
-23.4307 88.5704 -56.8267 87.4359 -24.4994 88.1923 -168.433 7.71314 101.989 -19.3117 -12.4524 3.40422 64.2777 -7.91502 -4.55493 28.7808 6.83373e-006 -7.31106e-006 173.939 0.541658 75.2198 -19.0534 -0.77263 -0.0977107 70.1845 5.01044 2.42496 28.7808 1.30174e-005 1.10656e-005 1.31824 7.32081 -90.5876 12.2602 2.23559 -1.88991 0.589623 2.15089 -1.98637 -21.9563 2.69814 -1.12819 -1.94363 2.69815 -1.1282 99.041 -10.8666 -91.403 22.6698 58.9956 -45.8656 114.006 -3.57346 -90.8721 37.4385 15.4474 37.6849 -98.5718 -33.9744 59.4264 -14.5579 -47.5449 -46.5173 -50.0439 -7.23344 -87.3713 -67.5528 14.3958 -26.9928 -35.6768 -3.83215 15.5879 -38.4337 4.11742 -16.1083 
-22.0848 88.7555 -60.3691 87.0464 -22.0114 87.3636 -169.982 8.54757 98.5638 -20.453 -12.0848 3.53842 67.2436 -5.68187 -3.01783 28.7808 6.83373e-006 -7.31106e-006 173.125 1.68466 72.3189 -20.2349 -0.18158 -0.0743224 65.4378 4.90042 2.71573 28.7808 1.30174e-005 1.10656e-005 1.3083 7.19613 -90.5432 12.5089 2.24909 -1.78786 0.838572 2.16832 -1.88519 -21.7083 2.68415 -1.02795 -1.69566 2.68414 -1.02796 99.8686 -5.07111 -90.3244 22.1225 62.7635 -49.2279 111.819 -0.377452 -92.5205 44.049 17.9018 36.987 -99.1066 -32.8795 57.9933 -18.3565 -47.8434 -55.0104 -44.0226 -4.11858 -88.914 -59.6002 13.0837 -28.3551 -39.3678 -4.52692 13.162 -36.3674 3.15327 -16.4317 
-20.7343 89.1685 -63.7572 87.4522 -19.7256 85.9508 -171.479 7.99095 94.9713 -21.0525 -10.863 3.268 68.1632 -4.32346 -2.20905 28.7808 6.83373e-006 -7.31106e-006 173.612 4.88452 68.6038 -27.2149 -0.485348 -0.152515 59.22 1.72776 1.25397 28.7808 1.30174e-005 1.10656e-005 1.37316 7.28674 -90.4374 12.3233 2.45336 -1.42994 0.653796 2.38802 -1.53789 -21.8983 2.76959 -0.625785 -1.88563 2.76958 -0.625814 100.734 -0.209815 -88.062 26.0158 65.98 -53.0371 106.234 -3.48215 -91.4099 50.2576 17.15 30.0911 -102.118 -42.5105 57.7421 -23.9267 -35.0043 -75.252 -33.7004 -0.459186 -93.2888 -58.1964 7.23117 -18.0202 -41.7574 -4.92889 10.3881 -35.9945 2.17172 -15.9758 
-19.4608 90.0213 -66.6187 87.6014 -18.2637 85.1503 -169.679 5.35656 93.6584 -16.6171 -6.81417 0.116153 67.2136 -0.621821 -0.324427 28.7808 6.83373e-006 -7.31106e-006 175.251 8.44956 66.2865 -34.0627 -1.88062 -0.315357 49.4769 -4.63004 -2.98738 28.7808 1.30174e-005 1.10656e-005 1.5294 7.33796 -90.2486 12.2299 2.74898 -1.36978 0.560987 2.68601 -1.48884 -21.9961 3.03341 -0.48382 -1.9835 3.03343 -0.483835 101.178 4.21987 -87.321 34.9946 69.4213 -61.268 96.9792 -9.28709 -90.8321 53.5024 15.0897 24.0788 -90.9395 -19.5353 67.0006 -20.3636 -46.1383 -54.5686 -35.4092 -0.133365 -93.6354 -41.3858 14.2137 -44.034 -45.9365 -5.29688 9.73351 -32.9362 1.97287 -17.6833 
-18.0415 90.2879 -69.3054 87.6959 -17.1765 85.0643 -170.108 4.12123 91.9417 -15.5603 -5.85066 -0.268556 67.8268 0.211449 0.130441 28.7808 6.83373e-006 -7.31106e-006 177.092 11.5712 65.4037 -39.9475 -4.47612 -0.537662 44.8547 -7.81584 -5.7616 28.7808 1.30174e-005 1.10656e-005 1.64781 7.40538 -90.183 12.104 2.9695 -1.44282 0.435467 2.90312 -1.57219 -22.1257 3.26572 -0.48274 -2.11299 3.26568 -0.482764 101.473 7.76245 -86.2799 48.3983 71.1097 -73.4205 90.7662 -16.1492 -91.3552 51.9057 12.1324 19.274 -89.6525 -16.5786 68.3747 -22.5663 -46.8882 -56.1723 -25.3001 1.92913 -98.3704 -31.5907 12.0196 -48.6787 -49.809 -5.57074 7.5261 -28.4992 0.037109 -15.8295 
-16.5764 90.3585 -71.3697 88.3519 -15.7987 85.4658 -169.987 2.88286 91.1683 -15.4892 -3.98972 -0.610016 68.9755 0.633082 0.361646 28.7808 6.83373e-006 -7.31106e-006 179.146 14.0065 66.1803 -46.9763 -7.68733 -0.820542 46.1919 -10.4105 -7.74994 28.7808 1.30174e-005 1.10656e-005 1.63792 7.42804 -90.05 12.0652 2.95401 -1.43441 0.396698 2.88803 -1.5631 -22.1643 3.24843 -0.479482 -2.15167 3.24843 -0.479509 101.47 8.49614 -86.4002 53.2936 71.6014 -80.9106 89.3214 -15.6749 -91.7745 59.5184 11.4032 14.5123 -88.3258 -12.8421 69.5985 -24.4212 -46.135 -57.9389 -16.0716 2.12984 -102.852 -20.2689 8.24198 -53.9596 -53.1976 -5.08598 5.03244 -25.3072 -1.07724 -13.4679 
-15.1431 90.439 -73.1091 89.3499 -13.1444 85.8148 -170.248 1.26724 90.3106 -14.9332 -1.59568 -0.324691 69.7038 1.14266 0.629329 28.7808 6.83373e-006 -7.31106e-006 -179.859 14.8507 68.2805 -51.4266 -9.00772 -0.967954 49.791 -8.91919 -6.21369 28.7808 1.30174e-005 1.10656e-005 1.52691 7.48709 -90.0077 11.942 2.73647 -1.32954 0.273115 2.67531 -1.44875 -22.2842 3.00944 -0.444895 -2.27153 3.00944 -0.444916 101.545 8.89375 -86.1483 62.3478 71.8705 -90.6809 89.7305 -18.0879 -91.5307 61.3457 10.9095 13.0289 -87.5585 -10.202 70.1095 -26.3621 -44.7632 -60.5282 -10.6579 2.01878 -107.428 -13.1108 5.19689 -56.7091 -56.0937 -4.54028 2.65076 -22.0063 -1.98804 -11.7148 
-13.6574 90.4018 -74.6149 90.0828 -9.83836 85.8842 -170.538 0.146408 89.5064 -14.9699 1.289 0.108637 70.5797 1.68366 0.906581 28.7808 6.83373e-006 -7.31106e-006 -178.831 16.7336 70.7076 -56.327 -8.04582 -1.00614 50.2681 -9.57602 -6.64877 28.7808 1.30174e-005 1.10656e-005 1.37076 7.52769 -89.9273 11.8544 2.43983 -1.15413 0.185146 2.38665 -1.26043 -22.3676 2.67383 -0.368908 -2.35498 2.67381 -0.368931 101.704 8.86846 -85.1997 68.4561 71.8017 -96.9255 90.0205 -19.9039 -91.3351 65.231 10.5329 11.1551 -87.0357 -7.55759 69.9851 -27.8627 -45.1908 -62.9421 -4.64667 0.572285 -109.746 -7.62011 2.70809 -60.4751 -60.0056 -3.92693 -0.396094 -15.9718 -3.49554 -9.17448 
-12.0495 90.3085 -76.0625 90.4704 -6.84232 86.0618 -171.063 -0.675887 88.6719 -15.4375 3.57211 0.836071 71.701 2.36405 1.2508 28.7808 6.83373e-006 -7.31106e-006 -178.309 19.2766 73.6954 -59.5323 -5.56945 -0.932982 50.4734 -10.9281 -7.64334 28.7808 1.30174e-005 1.10656e-005 1.2337 7.56221 -89.9404 11.7803 2.22501 -1.10111 0.110698 2.17437 -1.19796 -22.439 2.45302 -0.381223 -2.42635 2.45299 -0.38124 102.034 9.62449 -83.4448 71.5115 70.7106 -99.3185 89.0577 -22.674 -91.5382 68.1914 9.1175 8.22664 -86.6347 -6.15095 70.2479 -29.0603 -44.3074 -65.0812 -0.0635517 -0.847147 -112.292 -2.27534 -0.12583 -62.6081 -60.2701 -3.02927 -0.500139 -15.2517 -2.0518 -13.6542 
